<svg width="130" height="130" viewBox="0 0 130 130" fill="none" xmlns="http://www.w3.org/2000/svg">
<rect width="130" height="130" rx="20" fill="white"/>
<path d="M49.56 68.81C45.3067 69.3967 41.7867 69.69 39 69.69C38.0467 69.69 37.57 69.3233 37.57 68.59C37.57 66.9033 38.7067 65.1433 40.98 63.31C43.3267 61.4033 47.1033 59.7533 52.31 58.36C54.6567 50 57.3333 42.3367 60.34 35.37C53.0067 35.7367 46.9933 38.1567 42.3 42.63C41.1267 43.8033 40.1733 44.72 39.44 45.38C38.7067 46.04 38.0467 46.37 37.46 46.37C36.9467 46.37 36.4333 45.93 35.92 45.05C35.4067 44.17 35.15 42.9967 35.15 41.53C35.2233 35.8833 39.0367 31.3 46.59 27.78C54.1433 24.26 63.4567 22.5367 74.53 22.61L107.53 23.16C109.51 23.16 110.5 23.93 110.5 25.47C110.5 25.91 110.207 26.7167 109.62 27.89C109.033 28.99 108.52 30.2 108.08 31.52C107.127 34.16 105.073 35.48 101.92 35.48H98.4L83.77 35.37H75.3C74.7133 39.55 72.9533 46.37 70.02 55.83L90.15 56.16C91.3233 56.16 91.91 56.8567 91.91 58.25C91.91 58.69 91.7267 59.46 91.36 60.56C90.9933 61.66 90.6633 62.7967 90.37 63.97C89.7833 66.39 88.5367 67.6 86.63 67.6L69.91 66.83H68.48C68.04 66.83 67.5267 66.8667 66.94 66.94C63.1267 80.9467 61.22 92.02 61.22 100.16C61.22 104.487 57.0033 106.65 48.57 106.65C46.7367 106.65 45.6367 105.733 45.27 103.9C44.9767 101.993 44.83 99.5 44.83 96.42C44.83 89.82 46.4067 80.6167 49.56 68.81Z" fill="#06D001"/>
</svg>
